<?xml version="1.0" standalone="no"?>
<!DOCTYPE svg PUBLIC "-//W3C//DTD SVG 20010904//EN"
 "http://www.w3.org/TR/2001/REC-SVG-20010904/DTD/svg10.dtd">
<svg version="1.0" xmlns="http://www.w3.org/2000/svg"
 width="640.000000pt" height="1280.000000pt" viewBox="0 0 640.000000 1280.000000"
 preserveAspectRatio="xMidYMid meet">
<metadata>
Created by potrace 1.15, written by Peter Selinger 2001-2017
</metadata>
<g transform="translate(0.000000,1280.000000) scale(0.100000,-0.100000)"
fill="#000000" stroke="none">
<path d="M4900 9120 l0 -3680 30 0 30 0 0 3680 0 3680 -30 0 -30 0 0 -3680z"/>
<path d="M2641 12465 c-32 -69 -98 -142 -152 -171 -19 -9 -118 -45 -221 -79
l-188 -63 -34 34 c-22 22 -45 34 -62 34 -29 0 -124 53 -138 77 -4 8 -24 21
-42 29 -31 13 -39 13 -68 -1 -39 -19 -61 -61 -52 -102 l6 -28 -173 -64 c-195
-73 -260 -84 -333 -56 -25 9 -58 28 -75 42 -16 14 -31 24 -33 22 -2 -2 -11
-29 -21 -59 -74 -227 -161 -324 -289 -325 -34 0 -76 4 -95 9 l-34 8 6 -39 c16
-99 -36 -241 -123 -336 -77 -85 -172 -115 -253 -82 -16 7 -15 3 4 -30 36 -61
39 -182 6 -287 -40 -129 -51 -214 -37 -305 7 -43 19 -94 27 -113 l15 -35 16
50 c10 31 32 66 58 91 101 102 332 124 443 43 l41 -29 0 39 c0 55 32 152 70
210 69 109 173 171 296 179 40 2 86 0 104 -6 l31 -11 -23 37 c-48 79 -16 220
72 315 l49 52 1 -2677 0 -2678 30 0 30 0 0 2685 c0 2551 1 2685 18 2685 9 -1
40 -9 68 -18 l51 -18 -23 34 c-37 54 -63 136 -74 229 -10 94 -7 141 17 216 16
51 41 69 138 103 l47 15 101 -59 c100 -58 134 -89 84 -77 -60 15 -121 -58 -98
-118 19 -49 84 -72 132 -47 24 13 25 0 4 -89 -22 -92 -70 -177 -140 -246 l-60
-60 75 -1 c145 -1 231 -80 266 -242 21 -102 3 -167 -58 -216 l-33 -26 45 0
c119 0 248 -57 341 -149 106 -107 161 -251 140 -366 -5 -28 -9 -51 -8 -52 1
-1 27 5 57 13 102 26 222 11 345 -45 111 -51 168 -100 207 -178 l33 -68 5
-460 5 -460 27 -3 28 -3 2 483 3 483 29 75 c26 68 29 84 26 180 -5 191 -3 223
19 281 23 61 83 136 142 179 l37 26 -62 1 c-81 0 -141 29 -209 102 -64 69
-112 163 -128 253 -10 56 -10 76 4 130 8 35 18 71 22 81 6 15 0 17 -61 17
l-68 0 30 31 c46 49 144 108 213 129 42 14 92 20 150 20 144 0 243 -40 325
-130 l43 -49 49 45 c73 68 185 139 313 201 208 99 269 153 465 412 6 8 -7 5
-33 -9 -91 -46 -212 -35 -327 31 -119 67 -191 162 -201 264 l-6 55 -26 -34
c-68 -88 -192 -122 -335 -93 -134 28 -222 84 -284 181 -14 22 -27 42 -27 43
-1 2 -26 -21 -56 -50 -74 -72 -136 -101 -227 -105 -92 -5 -183 26 -307 103
l-84 53 -30 -63z m-381 -475 c17 -12 29 -24 26 -27 -7 -7 -119 24 -194 53 -79
31 -80 33 -63 43 18 11 191 -40 231 -69z m591 -345 c87 -44 139 -110 139 -175
0 -28 -2 -30 -27 -24 -94 23 -184 115 -217 221 -7 22 -7 22 32 9 22 -8 55 -22
73 -31z"/>
<path d="M1888 12410 c-26 -27 -30 -36 -25 -67 9 -52 38 -78 88 -78 80 0 119
92 63 149 -38 37 -86 36 -126 -4z"/>
<path d="M2660 9338 l0 -993 -62 -35 c-530 -300 -767 -939 -563 -1512 98 -274
312 -528 559 -663 l66 -37 -1 -736 0 -737 -22 60 c-136 365 -464 658 -849 760
-511 135 -1053 -69 -1352 -509 -235 -345 -279 -793 -116 -1186 158 -383 523
-673 935 -744 115 -20 315 -20 430 0 417 72 783 366 942 758 l33 81 0 -332 0
-333 30 0 30 0 0 1444 0 1445 83 -29 c143 -50 236 -65 407 -65 168 0 260 14
400 62 188 64 335 157 481 302 112 113 174 198 239 330 233 473 145 1037 -223
1417 -330 343 -798 465 -1261 329 -49 -14 -97 -30 -107 -36 -19 -9 -19 15 -19
971 l0 980 -30 0 -30 0 0 -992z"/>
<path d="M3125 9077 c-78 -30 -137 -88 -164 -160 -20 -52 -13 -148 14 -203
l24 -49 213 1 212 1 24 52 c64 141 -4 305 -148 356 -50 18 -132 18 -175 2z"/>
<path d="M3070 8634 c-14 -2 -52 -9 -85 -15 -33 -6 -90 -19 -127 -30 l-68 -20
0 -69 0 -69 42 15 c131 46 323 67 484 53 102 -9 259 -41 297 -61 15 -8 17 -2
17 61 l0 70 -67 20 c-38 10 -93 25 -123 31 -55 12 -324 22 -370 14z"/>
<path d="M1382 6091 c-104 -36 -172 -134 -172 -249 0 -62 18 -122 45 -152 12
-13 25 -15 67 -9 29 4 96 8 148 8 52 0 119 -4 148 -8 59 -8 70 -1 97 63 56
134 -27 309 -166 350 -67 20 -101 20 -167 -3z"/>
<path d="M1385 5653 c-76 -5 -171 -22 -257 -45 l-78 -20 0 -70 c0 -63 2 -69
18 -63 9 4 62 19 117 33 91 24 118 26 285 26 167 0 194 -2 285 -26 55 -14 108
-29 118 -33 15 -6 17 0 17 63 l0 70 -77 20 c-138 37 -303 54 -428 45z"/>
<path d="M4836 5366 c-141 -53 -209 -226 -141 -362 l24 -49 211 0 211 0 24 49
c31 63 34 160 6 222 -22 48 -77 106 -124 130 -43 23 -161 28 -211 10z"/>
<path d="M4727 4915 c-42 -7 -109 -23 -147 -34 l-70 -22 0 -64 c0 -36 1 -65 3
-65 1 0 47 11 101 25 54 14 147 29 207 35 134 13 286 0 425 -35 54 -14 100
-25 101 -25 2 0 3 29 3 65 l0 64 -67 21 c-157 48 -389 63 -556 35z"/>
<path d="M4775 4754 c-11 -3 -56 -12 -100 -20 -422 -81 -790 -408 -929 -825
-47 -140 -61 -233 -61 -399 0 -220 35 -370 130 -560 312 -623 1079 -869 1695
-544 181 96 345 243 454 408 126 190 185 356 208 583 44 439 -155 872 -518
1132 -143 101 -292 168 -464 206 -73 16 -371 30 -415 19z"/>
<path d="M2596 3106 c-140 -52 -211 -228 -144 -361 l24 -48 212 -1 213 -1 24
49 c59 117 16 265 -97 337 -41 27 -61 33 -121 36 -47 2 -86 -2 -111 -11z"/>
<path d="M2485 2654 c-44 -7 -109 -22 -145 -32 l-65 -19 -5 -66 c-3 -37 -3
-67 0 -67 3 0 50 11 104 25 201 51 430 53 612 4 138 -37 124 -41 124 35 l0 65
-67 21 c-167 49 -390 63 -558 34z"/>
<path d="M2540 2493 c-338 -53 -581 -182 -793 -422 -136 -153 -236 -353 -282
-561 -22 -104 -31 -317 -16 -421 37 -263 156 -509 336 -698 199 -209 470 -346
755 -381 420 -51 845 120 1114 449 313 382 371 915 148 1356 -178 353 -525
607 -916 670 -82 14 -283 18 -346 8z"/>
</g>
</svg>
